<svg xmlns="http://www.w3.org/2000/svg" width="1280" height="720" viewBox="0 0 1280 720">
  <rect width="1280" height="720" fill="#0b1220"/>
  <g fill="#dbeafe" font-family="sans-serif" font-size="24" text-anchor="middle">
    <rect x="70" y="300" width="170" height="80" rx="12" fill="#112037" stroke="#3b82f6"/>
    <text x="155" y="348">Script</text>
    <rect x="280" y="300" width="190" height="80" rx="12" fill="#112037" stroke="#3b82f6"/>
    <text x="375" y="348">LLM Planner</text>
    <rect x="510" y="300" width="180" height="80" rx="12" fill="#112037" stroke="#3b82f6"/>
    <text x="600" y="348">Scene Graph</text>
    <rect x="730" y="300" width="210" height="80" rx="12" fill="#112037" stroke="#3b82f6"/>
    <text x="835" y="348">Action Agent</text>
    <rect x="980" y="300" width="200" height="80" rx="12" fill="#112037" stroke="#3b82f6"/>
    <text x="1080" y="348">Unreal Runtime</text>
  </g>
  <g stroke="#60a5fa" stroke-width="4" fill="none" marker-end="url(#arrow)">
    <line x1="240" y1="340" x2="280" y2="340"/>
    <line x1="470" y1="340" x2="510" y2="340"/>
    <line x1="690" y1="340" x2="730" y2="340"/>
    <line x1="940" y1="340" x2="980" y2="340"/>
  </g>
  <defs>
    <marker id="arrow" markerWidth="10" markerHeight="10" refX="8" refY="3" orient="auto">
      <path d="M0,0 L0,6 L9,3 z" fill="#60a5fa"/>
    </marker>
  </defs>
</svg>
